<svg width="23" height="11" viewBox="0 0 23 11" fill="none" xmlns="http://www.w3.org/2000/svg">
<path opacity="0.35" d="M1.11653 2.57738C1.11653 1.52501 1.96964 0.671903 3.022 0.671903H17.6795C18.7319 0.671903 19.585 1.52501 19.585 2.57738V7.85408C19.585 8.90644 18.7319 9.75955 17.6795 9.75955H3.022C1.96964 9.75955 1.11653 8.90644 1.11653 7.85408V2.57738Z" stroke="#DADADA" stroke-width="0.87945"/>
<path opacity="0.4" d="M20.9042 3.45677V6.97457C21.6119 6.67663 22.0722 5.98355 22.0722 5.21567C22.0722 4.44779 21.6119 3.75471 20.9042 3.45677Z" fill="#DADADA"/>
<path d="M2.43584 3.16351C2.43584 2.5159 2.96084 1.99091 3.60844 1.99091H17.0933C17.741 1.99091 18.2659 2.5159 18.2659 3.16351V7.2676C18.2659 7.91521 17.7409 8.4402 17.0933 8.4402H3.60844C2.96083 8.4402 2.43584 7.91521 2.43584 7.2676V3.16351Z" fill="#DADADA"/>
</svg>
