<svg width="18" height="16" viewBox="0 0 18 16" fill="none" xmlns="http://www.w3.org/2000/svg">
<path d="M9.00595 12.3691C8.97011 11.8773 8.76021 11.4812 8.31993 11.1898C8.05883 11.0213 7.76702 10.9211 7.4496 10.9166C6.85062 10.9074 6.24651 10.8892 5.64752 10.9211C4.78232 10.9621 4.17309 11.5131 4.0963 12.2826C4.0963 12.3054 4.09118 12.3282 4.08606 12.3646C4.01439 12.3646 3.94783 12.3646 3.88128 12.3646C3.1543 12.3646 2.42733 12.3646 1.69524 12.3646C1.19352 12.3646 0.835152 12.6651 0.830032 13.0795C0.824913 13.5075 1.17816 13.8172 1.68499 13.8217C2.41197 13.8263 3.13895 13.8217 3.87104 13.8217C3.9376 13.8217 4.00927 13.8217 4.06558 13.8217C4.11678 14.0039 4.14238 14.1723 4.20893 14.3317C4.42907 14.8781 4.99734 15.2515 5.65264 15.2652C6.1902 15.2789 6.72775 15.2697 7.26018 15.2697C8.26361 15.2697 8.91379 14.7415 9.01106 13.8217C9.08786 13.8217 9.16465 13.8217 9.24656 13.8217C11.576 13.8217 13.9105 13.8263 16.2399 13.8172C16.4242 13.8172 16.6238 13.7762 16.7877 13.7033C17.1051 13.5576 17.2433 13.2206 17.1563 12.911C17.0692 12.6059 16.7621 12.3828 16.4088 12.3646C16.3474 12.36 16.2808 12.3646 16.2194 12.3646C13.8951 12.3646 11.5708 12.3646 9.24656 12.3646C9.15953 12.3691 9.08786 12.3691 9.00595 12.3691ZM5.73968 13.8172C5.73968 13.3299 5.73968 12.8564 5.73968 12.3782C6.28235 12.3782 6.81478 12.3782 7.34209 12.3782C7.34209 12.8655 7.34209 13.3345 7.34209 13.8172C6.80454 13.8172 6.28747 13.8172 5.73968 13.8172ZM7.37281 2.18284C7.35745 2.07811 7.35233 1.99159 7.33185 1.90963C7.17827 1.22659 6.54856 0.753023 5.76015 0.734809C5.21236 0.725702 4.65945 0.725702 4.11166 0.730255C3.22086 0.739363 2.58092 1.24936 2.46317 2.04168C2.45805 2.08266 2.44781 2.11909 2.43757 2.17828C2.17647 2.17828 1.91537 2.17373 1.6594 2.17828C1.06041 2.19195 0.671326 2.67462 0.870987 3.15275C0.988737 3.43962 1.28055 3.62631 1.6338 3.63087C1.90002 3.63542 2.17135 3.63087 2.44269 3.63087C2.45293 3.69006 2.46317 3.73105 2.46829 3.77658C2.5758 4.50515 3.14407 5.02425 3.96831 5.06979C4.60826 5.10622 5.25844 5.10622 5.9035 5.06524C6.71239 5.01059 7.2909 4.45051 7.35745 3.73105C7.35745 3.70372 7.36769 3.6764 7.37281 3.63087C7.45472 3.63087 7.5264 3.63087 7.60319 3.63087C10.506 3.63087 13.4036 3.63087 16.3064 3.63087C16.8184 3.63997 17.1767 3.33033 17.1716 2.89775C17.1665 2.55168 16.8952 2.2648 16.5112 2.20105C16.4139 2.18284 16.3064 2.18284 16.204 2.18284C13.3422 2.18284 10.4804 2.18284 7.61855 2.18284C7.53664 2.18284 7.45472 2.18284 7.37281 2.18284ZM4.0963 2.1965C4.64409 2.1965 5.17653 2.1965 5.71408 2.1965C5.71408 2.68373 5.71408 3.1573 5.71408 3.63087C5.16629 3.63087 4.63385 3.63087 4.0963 3.63087C4.0963 3.14819 4.0963 2.67918 4.0963 2.1965ZM8.99059 8.72629C9.02642 9.25906 9.26704 9.66888 9.74828 9.9512C10.0145 10.1106 10.3165 10.1834 10.634 10.1834C11.1715 10.1834 11.7091 10.188 12.2415 10.1834C13.1323 10.1789 13.8132 9.62334 13.9002 8.84013C13.9054 8.81281 13.9054 8.78549 13.9105 8.73085C13.977 8.73085 14.0436 8.73085 14.1153 8.73085C14.8729 8.73085 15.6358 8.7354 16.3934 8.72629C16.7621 8.72174 17.0692 8.48495 17.1511 8.17531C17.2331 7.86112 17.0795 7.5196 16.7569 7.37844C16.6136 7.31469 16.4395 7.28737 16.2808 7.28737C15.5641 7.27826 14.8525 7.28282 14.1357 7.28282C14.0641 7.28282 13.9975 7.28282 13.9309 7.28282C13.89 7.11889 13.8746 6.96862 13.8183 6.82291C13.6084 6.24005 12.9941 5.83479 12.3029 5.82568C11.7551 5.81657 11.2022 5.82113 10.6544 5.82568C9.77388 5.83023 9.0981 6.37666 9.00083 7.15532C8.99571 7.18719 8.99571 7.22362 8.99059 7.28282C8.91379 7.28282 8.84212 7.28282 8.77045 7.28282C6.44105 7.28282 4.10654 7.28282 1.77715 7.28282C1.63892 7.28282 1.49045 7.28737 1.36246 7.32835C0.988737 7.43764 0.778835 7.77005 0.83515 8.12522C0.886345 8.44853 1.20376 8.70808 1.5826 8.72629C1.66452 8.73085 1.74643 8.73085 1.83346 8.73085C4.13726 8.73085 6.44617 8.73085 8.74997 8.73085C8.82164 8.72629 8.89844 8.72629 8.99059 8.72629ZM10.6442 7.29192C11.192 7.29192 11.7193 7.29192 12.2466 7.29192C12.2466 7.7746 12.2466 8.24817 12.2466 8.71719C11.7039 8.71719 11.1766 8.71719 10.6442 8.71719C10.6442 8.23906 10.6442 7.77005 10.6442 7.29192Z" fill="white"/>
</svg>
