<svg width="15" height="10" viewBox="0 0 15 10" fill="none" xmlns="http://www.w3.org/2000/svg">
<path fill-rule="evenodd" clip-rule="evenodd" d="M14.0712 0.525421H13.1917C12.706 0.525421 12.3123 0.919164 12.3123 1.40487V9.02677C12.3123 9.51248 12.706 9.90622 13.1917 9.90622H14.0712C14.5569 9.90622 14.9506 9.51248 14.9506 9.02677V1.40487C14.9506 0.919164 14.5569 0.525421 14.0712 0.525421ZM9.08746 2.57754H9.96691C10.4526 2.57754 10.8464 2.97128 10.8464 3.45699V9.02684C10.8464 9.51255 10.4526 9.90629 9.96691 9.90629H9.08746C8.60176 9.90629 8.20801 9.51255 8.20801 9.02684V3.45699C8.20801 2.97128 8.60176 2.57754 9.08746 2.57754ZM5.86314 4.62966H4.98369C4.49798 4.62966 4.10424 5.0234 4.10424 5.50911V9.02691C4.10424 9.51262 4.49798 9.90636 4.98369 9.90636H5.86314C6.34885 9.90636 6.74259 9.51262 6.74259 9.02691V5.50911C6.74259 5.0234 6.34885 4.62966 5.86314 4.62966ZM1.7589 6.38865H0.87945C0.393743 6.38865 0 6.7824 0 7.2681V9.027C0 9.51271 0.393743 9.90645 0.87945 9.90645H1.7589C2.24461 9.90645 2.63835 9.51271 2.63835 9.027V7.2681C2.63835 6.7824 2.24461 6.38865 1.7589 6.38865Z" fill="#DADADA"/>
</svg>
