<svg width="15" height="10" viewBox="0 0 15 10" fill="none" xmlns="http://www.w3.org/2000/svg">
<path fill-rule="evenodd" clip-rule="evenodd" d="M7.31407 2.23264C9.26284 2.23272 11.1371 2.98152 12.5494 4.32426C12.6558 4.42793 12.8258 4.42662 12.9305 4.32133L13.9472 3.29531C14.0002 3.2419 14.0298 3.16957 14.0293 3.0943C14.0289 3.01904 13.9985 2.94706 13.9448 2.89428C10.2379 -0.658302 4.38969 -0.658302 0.682727 2.89428C0.629029 2.94702 0.598562 3.01898 0.598067 3.09424C0.597572 3.16951 0.62709 3.24187 0.680089 3.29531L1.69703 4.32133C1.80171 4.42678 1.97183 4.42809 2.07812 4.32426C3.49065 2.98143 5.36511 2.23263 7.31407 2.23264ZM7.31398 5.57079C8.3847 5.57072 9.41721 5.9687 10.2109 6.6874C10.3182 6.7894 10.4873 6.78718 10.592 6.68241L11.6075 5.65639C11.6609 5.60257 11.6906 5.52956 11.6898 5.4537C11.6891 5.37783 11.6579 5.30544 11.6033 5.25272C9.18645 3.00451 5.44356 3.00451 3.02666 5.25272C2.97207 5.30544 2.94092 5.37787 2.9402 5.45376C2.93948 5.52965 2.96926 5.60265 3.02285 5.65639L4.03803 6.68241C4.14267 6.78718 4.31177 6.7894 4.41912 6.6874C5.21227 5.96918 6.24397 5.57123 7.31398 5.57079ZM9.3479 7.81681C9.34946 7.89289 9.31955 7.96624 9.26524 8.01954L7.50868 9.79222C7.45719 9.84432 7.38699 9.87364 7.31374 9.87364C7.24049 9.87364 7.17029 9.84432 7.1188 9.79222L5.36195 8.01954C5.30768 7.9662 5.27782 7.89283 5.27943 7.81675C5.28104 7.74067 5.31397 7.66863 5.37045 7.61763C6.49225 6.66881 8.13523 6.66881 9.25703 7.61763C9.31347 7.66867 9.34635 7.74074 9.3479 7.81681Z" fill="#DADADA"/>
</svg>
